<mxfile host="Electron" agent="Mozilla/5.0 (Windows NT 10.0; Win64; x64) AppleWebKit/537.36 (KHTML, like Gecko) draw.io/26.0.4 Chrome/128.0.6613.186 Electron/32.2.5 Safari/537.36" version="26.0.4">
  <diagram name="Page-1" id="mnHDLyTP0ajH5ulmv38_">
    <mxGraphModel dx="1434" dy="1004" grid="1" gridSize="10" guides="1" tooltips="1" connect="1" arrows="1" fold="1" page="1" pageScale="1" pageWidth="850" pageHeight="1100" math="0" shadow="0">
      <root>
        <mxCell id="0" />
        <mxCell id="1" parent="0" />
        <mxCell id="acW1Ckd2XEiPTocVWJh1-2" value="&lt;font style=&quot;color: rgb(255, 255, 0);&quot;&gt;poses&lt;/font&gt;_&lt;font style=&quot;color: rgb(102, 178, 255);&quot;&gt;G8&lt;/font&gt;_YOGACouplePoses&lt;div&gt;&lt;font style=&quot;color: rgb(255, 255, 0);&quot;&gt;character&lt;/font&gt;_&lt;font style=&quot;color: rgb(102, 178, 255);&quot;&gt;G8F&lt;/font&gt;_minerva9HD&lt;br&gt;&lt;/div&gt;" style="text;html=1;align=left;verticalAlign=middle;whiteSpace=wrap;rounded=0;" vertex="1" parent="1">
          <mxGeometry x="400" y="160" width="270" height="50" as="geometry" />
        </mxCell>
        <mxCell id="acW1Ckd2XEiPTocVWJh1-6" value="" style="shape=image;aspect=fixed;image=data:image/png,iVBORw0KGgoAAAANSUhEUgAAAYIAAALFCAYAAADOT+TAAAAAAXNSR0IArs4c6QAAAARnQU1BAACxjwv8YQUAAAAJcEhZcwAADsMAAA7DAcdvqGQAAFpuSURBVHhe7b0JtO5XVeWLDY2AFIoMS2oAISAC6tOhTwqltSmLEnVQKoWWiPiUEhF5oqKWFkgTROlURCAJTcB0+AgkQfHxSuwQy9IgjUQgNEIkQRrpDBrp9vvvc+/izDv3Wnvv/9ec7zv/PecYv7Hnmmt93//mcvOtnHNC9nW+64Hfk+53v/ulr/u6r0t3etwVQgghBuPURXCnOwkhhBgMLQIhhBicYhH83AP/XXrvi6+X/vll100fu/S66ZpLrpf+6ZLrpyvO+fz0zXe9ffEGQgghjjfFInjbC29wsAA+dun10zWX3mBaAjdIH734hhM3Sm9+/k3Tnb/mDsWbCCGEOL4Ui+CaS683kZfA56WPXjIxLYCPXHzj9OGXfv7Ev0kfeslNJ74gffCiL0z/eNHNJm6ePvDim6c3nP0l6RHff9viAUIIIfYbZxHkrwLyVwCZG6ePHCyAm6QPX/rF6drXPDCldz8zpSt/Y+KpKf3dE1N6x2NTetv/SOmtP5c+ctlDigcYKK8vhBBiNxSL4NNXnZPS+y9J6X0XpfTeF6X0nnNTunrKrjpz+vB/2vTh//jpw/+XUnr7L04f/j8/8ciUrnhESm/5iZTe9GPFAzKb+PBf5z3Wea0QQiydYhGkq86a/qn/GSn9ff6n/umD/11PSumd0z/5HyyAx0wLYPqn/7f/95ML4KemBfDwlN780GkJ/GhKf/vDxQNqH8ImL8vqyaxuzWXhrBBCiBOUi+AzC+DJJxfAGScXwKNSelteAD87LYCfnvjJaQk8bFoAD5kWwI+kdPmDUnrj9xcPiD6AMT9KL4QQ4lTKRXCwAH5lWgBPmHjctAQePS2AX5j4+cMF8OaTC+BND54WwA9NC+AHUvqb703pDd9TPCD6EMZ8FY+KZjwvhBDiVMpF8He/fHIB0M8B3pK/Anj49OGfvw30304ugAdOC+C/Tgvgv6T0+u9K6XXfWTwg+hDGfB2PYB55IYQQp1IuAvs5QP4K4ODbQPZzgB+fFsCJnwMcLoD7f2YBpNd+W0p//R+LBxy8p/NBjNk6HsE88kIIIU6lXAT520B5Abz1p098FWDfBjr4OcAPTkvgASe+DfT675m477QA7jMtgHun9JpvSemyexUPMFCc8Vzks7jOwizyWVYLIYQ4pFgEH3nNQ2EB/Ni0APjnAPebFsB/nhbAd0wL4D+dXADfmNJf3T29++X/vniAEEKI/aZYBI/4vtul1591q/SeF90yvefCfJ6Wrr7gNumqC05P7z7/tunvz7/dxO3TlefdIb3r3Dukd557x4kvT5c/5yvSw+/vP0QIIcT+UiwCIYQQY6FFIIQQg6NFIIQQg6NFIIQQg1MsAtSnPvWpdMHP/vTJ6oT+8sLz09++8g8O/L/8y7+kyy+/PF1yySXpvPPOS2eeeWbxACGEEPtNuAg+/elPp4t+7Wnp2be4WXrdH77yIHvba16TXnST66cLJv7q91+errzyyoMl8IIXvCD91m/9Vjr77LOLBwghhNhvikXwhlf8v+lPHvvodNY33T396StekV796lenM299i/TXL/+99PKf+r/TS2583XTRxAse95h04YUXfuYrgWc961npGc94RvEAIYQQ+02xCK5809+mc+9wenr+o34xPfFhD01P/9EHp//5kB9Jf3b+eeniB/9Q+n9u9LnpmV92ejrv3HPTc57znIOvAvIieO5zn3uwGPgBQggh9hv3W0N/+uxnpovve5/0sgf/X+nS+393Ov8uX5te8G3fmp5/21ulC6dF8LgfetDBVwB5ATzvec87WAL5K4OXvexlxQM8srx830F5WVYrZ1A9Ofa9XAgh5uIugre+4fXpogc9IL36cb+UfusWN08vuOHnpvMnzps494afkx7/8J84WAT5K4Lf/u3fThdddFF65Stfma644oriAR5ZXr4NNvWs1vtwn2sPnrHaTs6FEGIbFIvgmn/6p/QXL31Jesvll6dXnvns9Nzpg//cz/uc9NsTL5x4wcRTv/hm6fEP/IF0xg8+MD3tYT+eXvbSl6Y/+J0XHfyAmR+QMXGd5c1lcc6nCeewF82ZrLYMTybKDa/vZQzPWG0n51GGwplWTwghMsUiuPjHH3LwT/3PutH10rPu8nXpOSc//M+5week50887yTPvf5np+dMnDnxpJveOP3mlP3lxS8tHuB9AGGGHsHchH3sed7Laj7LaqbWy5i8zIQ9nPFqOzmPsrleCCGQYhGc+bVfdcoHv334Pzdz8sP/7Imz8hK43menZ5/kWRO/8/CHFQ/wPoAwQ2+1KZqxzIQZznDG8mY8sG/CPvY8H8EzVtvJeZTN9UIIgRSL4DV/8D/T0+50+3TG6bdOj/uGu6RHTTzz+p/zmQ9++/DPH/zPzP4ed02/89M/lZ54iy9OV73jHcUDvA8gzOb6Wg+9l6FHotzgPtdejj6CZ6y2k/Mom+uFEAIpFsGrXvWqg38DKP8fxM4666yDfyvo57/xXp/54P+t657gGRO/PPH+f/iHgw+Zf/nnfz44+QGtbK6v9dB7GXokyg3uc+3l6CN4xmo7OY+yuV4IIZBiEeR/CygvgfyvhOZ/PTQvgxe+8IXpsTe5UfrN635Wenrmcz8rnXHD66cnTIvg3e98Z3rra/86/a+XvSz8sDFh7XmrTdGMZSYvb9VZmJmPYHk5z2MdgerN8TRvsqynJ4QQmWIR5CXw7Gc/++D/KHbOOeek888//+BfDT3jy740/fq0AH5t4jfucbf0Tx/9aHrOA38g/cot/m0640Y3TL/y2Z+VXvmCc4oHiO2AH+zoI3pmhBBjUv6wePoqIC+B/C2hiy++OP3Jn/xJesXLX54ef9ObpKd+zmelp0z8f9OiyLr22mvTBY98ZHr2t98nnf/wn0gf/uAHiwccN1jezKqwvJkeTFhjH3OT1xdCiEyxCPJ/QC5/FfCSl7zk4L8zdPXVV6e3vva16Qk3/6L0pOmf+n/1s6+T/uTCC09+vJTiBwghhNhvikWQ/1/Cv/u7v5suu+yydNVVV538eE8HPxS++LGPSb/3jGekT3ziEyfTUvwAIYQQ+02xCIQQQoyFFoEQQgxOsQhQuqFMCCGWT7gIdEOZEEKMQbEIdEOZEEKMRbEIdEOZEEKMhfutId1Q5oPysqxWzrAs45moRuGM9bhmeXNMq8/wPNYonEFqPSHE5nEXgW4oK2m9D/e5jojmMO/xHlE/yiPWncc68kKI3VEsAt1QdpgbUW54fS/ziOYsj072jPXs9Hq1OovrLG8ui/OoRu/VnKFwptUTQvRTLALdUFZS62VMXmbCHsLCvHYaXHNup9fzavRehh7B3JM359WczfVCiPkUi0A3lJVg34R97Hm+RjRneXQinGGNPsrm1OitNtVmenpeNtcLIeZTLALdUFbCfa69HH2NaM7y6GQwZ+Gc9Ws1Z+v4OT0vm+uFEPMpFoFuKCvhPtdejr5GbY57XCPYQ79Kzdk6vtZDj2A+1wsh5lMsAt1Q5sPycp7HOqI2xz2vNkUzXlarTbU+90y1GfQmnLEenuZNlvX0hBD9FItAN5SJXYMf7OgjemaEEDHlD4unrwJ0Q9mhvJlVYXkzo2PCGvuYm7y+EKKfYhHohjIhhBiLYhHohjIhhBiLYhEIIYQYCy0CIYQYnGIRoHRDmRBCLJ9wEeiGMiGEGINiEeiGMiGEGItiEeiGMiGEGAv3W0O6ocwH5WVZrZyJelHewzqv9fDkzXAmhDgeuItAN5SVtN6H+1xHRHNRvg/s869NCDGfYhHohrLD3Ihyw+t7mYdpnSyLc65N3gx6q7Mww14rR+FMqyeE2A3FItANZSW1XsbkZSbsIdaLzn3xtYzzuV4IsVuKRaAbykqwb8I+9jxfw+aicxceZTnPMdib64UQu6VYBLqhrIT7XHs5+ho4t2+e6e3N9UKI3VIsAt1QVsJ9rr0cfY1oDvNdeaa3N9cLIXZLsQh0Q5kPy8t5HuuIaI5zE2ctb7Vp1Rw9Yrmd5k2W9fSEELuhWAS6oWy5bPPDF98bfUTPjBDiaCh/WDx9FaAbyg7lzawKy5vZJtt6pglr7GNu8vpCiN1QLALdUCaEEGNRLALdUCaEEGNRLAIhhBBjoUUghBCDUywClG4oE0KI5RMuAt1QJoQQY1AsAt1QJoQQY1EsAt1QJoQQY+F+a0g3lPmgvCyrlXugvP42YHkzNaLXRHkP67zWw5M3w5kQo+EuAt1QVtJ6H+5zHdE7t2nWfW70+ijfB/b51ybELikWgW4oO8yNKDe8vpd51OZMXpa1bo41YuKMzyyeyerNsjjn2uTNoLc6CzPstXIUzrR6Qhx3ikWgG8pKar2MyctM2GO8PmbreARzVjSDPot70bkvvpZxPtcLsRSKRaAbykqwb8I+9jzfA8+zvLkeb7UpmvHyyGMdnbvwKMt5jsHeXC/EUigWgW4oK+E+116Ovhd8DXoE8015BPPI13r74Jne3lwvxFIoFoFuKCvhPtdejr4XfA16BPNNeQTzyHu1l+/KM729uV6IpVAsAt1Q5sPycp7HOgLV05vrrTZFM4iJs1od5SbOWt5q06o5esRyO82bLOvpCXHcKRaBbigT+8Y2P3zxvdFH9MwIcdwof1g8fRWgG8oO5c2sCsubESXb+r0yYY19zE1eX4jjTrEIdEOZEEKMRbEIdEOZEEKMRbEIhBBCjIUWgRBCDE6xCFC6oUwIIZZPuAh0Q5kQQoxBsQh0Q5kQQoxFsQh0Q5kQQoyF+62hfbuhbO78HFBeltXKI3gGa/SbhuXN1DBhjX2m1RdC7DfuItiHG8pwBv0mab0v97luUZuv9dbBe18vY3AGPVPrCSGOJ8UiOKobylp9k1cjpt7cqPUyXt/LImzWzpY3YW19nuPMOxHMPB+pNmc97NdmWj0hxO4oFsEubyjbho9ozZi8zIQ9xvp2btNneT0vm+tbPc7meiHE7ikWwS5vKFvFoyznOQ/sm7CPPc/XwLlNepQ349WczfWtHmdzvRBi9xSLYN9vKIu8R63PPa69HH0NFuab8AjnXHM217d6nM31QojdUyyCfb+hLPIetT73uPZy9DV4zmo71/UI51xzNte3epzN9UKI3VMsgqO6oSwrqjmzk73VJs5wzoPl5TyPtYc3Y5md5rO83PNWm6IZy1C1PmfmLefahLmd2M+yrKcnhNgdxSLQDWViLvjBjj6iZ0YIcXSUPyyevgpY2g1lLG9mVVjezJIxYY19zE1eXwixO4pFoBvKhBBiLIpFoBvKhBBiLIpFIIQQYiy0CIQQYnCKRYDSDWVCCLF8wkWgG8qEEGIMikWgG8qEEGIsikWgG8qEEGIs3G8N6YayU9XKI1Be3wPl9RmWN1PDhDX2mVZfCHH8cBeBbig7Afe5rjFn1pj7Gm/eyxicQc/UekKI5VAsAt1QdgKv72UerTkTZ1gzJs6w5szzkWpz1sN+babVE0LsF8Ui0A1lJzB5mQl7SG8v8gz2Iu9lc32rx9lcL4TYT4pFoBvK6nPYi8A5U9SLfFbU87yXzfWtHmdzvRBiPykWgW4oOxXM0dfgOax7fK0XeS+b61s9zuZ6IcR+UiwC3VB2Kpijr8FzWPf4Wi/yXjbXt3qczfVCiP2kWAS6ocx/T8uxrsHyephhbvJ6mGFuqvU5M2851ybM7cR+lmU9PSHEflEsAt1QJmrgBzv6iJ4ZIcRuKX9YPH0VoBvK+mF5M0vBhDX2MTd5fSHEflEsAt1QJoQQY1EsAt1QJoQQY1EsAiGEEGOhRSCEEINTLAKUbigTQojlEy4C3VAmhBBjUCwC3VAmhBBjUSwC3VAmhBBj4X5rSDeUnapWztR6q2LvaSfnUc1gH/0qsLyZGiassY95ltfrAeX1N03rOaxWvg3Wff91Xy/2C3cR6IayE3Cf64jeuTnge/b4CJxBPxfvtV7G4Ax6Bnvo57LOa7cN/9q43iZH+Syx/xSLQDeUncDre5lHNIfqyaOe+eg0b7LMm4l8ltXY5xPBzPOR5s7hDGfeGWHysizMsdfK0Xt9y7COMsPkZVm9M5hznYVZK0dvwplWT+wPxSLQDWUnMHmZCXtIrWfgzKo+OhnMPW9ny2d5PS+b62s99LWeyesx2NuU9zL0iMnLTJiv6hHM53oGe3O92D+KRaAbyupz2IuozaEwW8VHp4HCjL2d5lE8G9WczfW1HvpaD73Xy+LahHnkUZbzXE+NYA89wsK85a02eTMsy3kuyud6sX8Ui0A3lJ0K5uhrRHOYb8JH5xyfZTX3aznXnM31tR76Wg99q0aPYB55D+yjr2Wco0d68k15D6+P2Vwv9o9iEeiGslPBHH2NaA7zdfzcuuXtZI9wzjVnc32th77WQ9+q0SOYR94D++hrGefokZ58U97D62M214v9o1gEuqHMf0/LsY7w5PUw87zVJs5rtWUmzsxjzjNZXh8zVK3PmXnLuTZx7vUxw9oyVNTDzPNWmzjjuVbfxDnWCAqzlrfaxNmcGcvwNG+yrKcn9odiEeiGMiFEC/xgRx/RMyN2R/nD4umrAN1Q1g/LmxFiSZiwxj7mJq8v9odiEeiGMiGEGItiEeiGMiGEGItiEQghhBgLLQIhhBicYhGgdEOZEEIsn3AR6IYyIYQYg2IR6IYyIYQYi2IR6IYyIYQYC/dbQ7qh7FS1coZ7XCO13hxY0YyX98DyZmqYsMY+0+oLITaHuwh0Q9kJuM91BM9xjdR6c+h5n54ZD+91XsbgDHqm1hNCbJ9iEeiGshN4fS/z4DmszeNpsplVc6wRVC23E/tezpnnI9XmrIf92kyrJ4Too1gEuqHsBCYvM2EP4R7WpqhnHsG85lHRTK+3k72XzfWtHmdzvRBiHsUi0A1l9TnsRfAc1uh7eiZvJvII5nO8ney9bK5v9Tib64UQ8ygWgW4oOxXM0dfgOazR13rreATzOd5O9l4217d6nM31Qoh5FItAN5SdCuboa/Ac1uhrvXU8gnmP76k5m+tbPc7meiHEPIpFoBvK/Pe0HOsaKM65NmEe9WoeZTn3enOsLUPV+pyZt5xrE+Z2Yj/Lsp6eEKKPYhHohrLx4A9RrncB/hrQR/TMCCF8yh8WT18F6IayfljezD6C4hzrXWDCGvuYm7y+EKKPYhHohjIhhBiLYhHohjIhhBiLYhEIIYQYCy0CIYQYnGIRoHRDmRBCLJ9wEeiGMiGEGINiEeiGMiGEGItiEeiGMiGEGAv3W0ObvKEsi7Mac+czKC/LauVM1IvybcHP49pjUzNCiDFwF8EmbyjL4myTtN6f+1xHRHNRvknwGei9Wggh1qVYBJu+oQzVm7O3k4lyw+t7mYeplqF4Dk/zJsswj+bsxD56U22GM65RONPqCSGWQbEItnlDGXoEc/ZZVjO1XsbkZSbsIdaLTgZzU9Sb61nWQzBnn2U15qt6IcSyKBbBNm8oQ2+1yZtB74F9E/ax5/kaNhedBgozntmEj2qTN4MewXyuF0Isi2IRbPOGsnW8B/e59nL0NXBuHV/rzfW1Xo9HMJ/rhRDLolgE27yhbB3vwX2uvRx9jWgO8x5f6831tV6PRzCf64UQy6JYBJu+oQwz9FabvBn0ESwv53msI6I5zlHRjGUmL48yO7HHtcmbQY+1neZNlvX0hBDLoFgEuqFsu+zLByr+OtBH9MwIIY4n5Q+Lp68C9vGGMpY3syosb2YdUF7/qDFhjX3MTV5fCLEMikWgG8qEEGIsikWgG8qEEGIsikUghBBiLLQIhBBicIpFgNINZUIIsXzCRaAbyoQQYgyKRaAbyoQQYiyKRaAbyoQQYizcbw3phrIToLz+JuFncO2xqRkhxNi4i0A3lG3/183w87gWQohtUSwC3VB2gmgOxbnnrc6KerXcvKk2wxnXKJxp9YQQy6ZYBLqh7JA5/R7PmZ3mWdZDMGefZTXmq3ohxBgUi0A3lJ2KN4/CrOU5s5N9VJu8GfQI5nO9EGIMikWgG8pK8DXreM7sZF/r9XgE87leCDEGxSLQDWUl+Jp1PMJ5rZ7rEczneiHEGBSLQDeUnQDV20N5OWdza5M3gx5rO82bLOvpCSGWTbEIdEPZ0XBUH7j4HPQRPTNCiGVR/rB4+ipAN5T5c5viKJ6RMWGNfcxNXl8IsWyKRaAbyoQQYiyKRaAbyoQQYiyKRSCEEGIstAiEEGJwikWA0g1lQgixfMJFoBvKhBBiDIpFoBvKhBBiLIpFoBvKhBBiLNxvDW3yhrJ9AeVlWa2c4R7Xm8Dk9RCcQY9EeUTPPM6gcGZbsLyZo2bbvw5U1J+TC5FxF8EmbyjbB7K83OA+1xE8x/Um6H1PnEOPRHlEzzzORH5bHMUz9gn+6/XqLMyE6KFYBEd1Qxn2enITZrXcqPUyXt/LPHjOq7O8LAtz7HGdhVmPz7J6ToZ5lpdz1vJWZ2EW5SbMvBx9lFmNivqYZVldy01Y1/qYZWGOPc6tF9Xm7WQwR+FMqyeWS7EIjuqGsh7vZZGPaM2YvMyEPcQT9jbtaz3PR+c+ei+LPGYozPFs+ayo5/nebB3vwX2uo4zzuV4sn2IRHNUNZZGPahT3sGawb8I+9jxfg+ewXsWjvBmuWz46V/Wo1oxl3kzUsxrFvVqNcA/ryFuN4h7WXob1XB/VKO5hHWWcz/Vi+RSLYNc3lHkZeo9an3tcezn6GjyH9Toe4RzrXXkEc/QI5ui9DL0H9tEz3MM68l7NeH3M1vG1zMu5jjLO53qxfIpFsOsbyrwMvUetzz2uvRx9DZ7Deh2PcI51j0cwX8cjmKNHMEfvZeg9sI8esdzOXu/VjNfHbB1fy7yc6yjjfK4Xy6dYBNu4ocwU9VoZ5lmc4ZwHy8t5HusInvPqLC/LwjzqocfMxJl5yxHOTZhhntXKTeYtZ0ytDPMszqK5LMt4hme9Pmcmzrw5zrjO4izyWVZ7oKLcZDmePGtZT08sl2IRbPqGMv2BOhX9fuyG0X/f8a8ffUTPjFgO5Q+Lp68CNnlDWRZn24LlzawKy5vpYZ3XitUZ+ffdhDX2MTd5fbFcikWgG8qEEGIsikWgG8qEEGIsikUghBBiLLQIhBBicIpFgNINZUIIsXzCRaAbyoQQYgyKRaAbyoQQYiyKRaAbyoQQYizcbw3phrJTZTnDPa43gcnrITiDHonyiJ55nEHhzLZgeTNHzbZ/Haiox7n1vFyIjLsIdENZ3980PMf1Juh9T5xDj0R5RM88zkR+WxzFM/YJ/uvFOvJC9FAsAt1Q1n6NwXNeneVlWZhjj+sszHp8ltVzMsyzvJyzlrc6C7MoN2Hm5eijzGpU1Mcsy+pabsK61scsC3PscW69Wl3LMUPhTKsnlkuxCHRD2WFmwh7iCXub9rWe56NzH72XRR4zFOZ4tnxW1PN8b7aO9+A+17Ucs7leLJ9iEeiGsvZ7GjyH9Soe5c1w3fLRuapHtWYs82aintUo7tVqhHtYR95qFPew9jKs5/qoRnEP6yjjfK4Xy6dYBLqhrP08g+ewXscjnGO9K49gjh7BHL2XoffAPnqGe1hH3qsZr4/ZOr6WeTnXUcb5XC+WT7EIdENZ+3kGz2G9jkc4x7rHI5iv4xHM0SOYo/cy9B7YR49Ybmev92rG62O2jq9lXt6qEezN9WL5FItAN5SdyLGO4DmvzvKyLMyjHnrMTJyZtxzh3IQZ5lmt3GTecsbUyjDP4iyay7KMZ3jW63Nm4syb44zrLM4in2W1ByrKszDHk2ct6+mJ5VIsAt1Qtl30+7EbRv99x79+9BE9M2I5lD8snr4K0A1lJSxvpod1XitWZ+TfdxPW2Mfc5PXFcikWgW4oE0KIsSgWgW4oE0KIsSgWgRBCiLHQIhBCiMEpFgFKN5QJIcTyCReBbigTQogxKBaBbigTQoixKBaBbigTQoixcL81pBvKTpXlDPe43gQmr4fgDHokyiN65nEGhTPbguXNHDXb/nWgojwLe9bnTAjDXQS6oazvbxqe43oT9L4nzqFHojyiZx5nIr8tjuIZ+wT/9XIdZUK0KBaBbihrv8bgOa/O8rIszLHHdRZmPT7L6jkZ5llezlnLW52FWZSbMPNy9FFmNSrqY5ZldS03YV3rY5aFOfY4t96cGsEeCmdaPbFcikWgG8oOMxP2EE/Y27Sv9TwfnfvovSzymKEwx7Pls6Ke53uzdbwH9706CzPsrerF8ikWgW4oa7+nwXNYr+JR3gzXLR+dq3pUa8YybybqWY3iXq1GuId15K1GcQ9rL8N6ro9qFPewruWYzfVi+RSLQDeUtZ9n8BzW63iEc6x35RHM0SOYo/cy9B7YR89wD+vIezXj9TFbx9cyL+e6lmM214vlUywC3VDWfp7Bc1iv4xHOse7xCObreARz9Ajm6L0MvQf20SOW29nrvZrx+pit42uZl3NdyzGb68XyKRaBbig7kWMdwXNeneVlWZhHPfSYmTgzbznCuQkzzLNaucm85YyplWGexVk0l2UZz/Cs1+fMxJk3xxnXWZxFPstqD1Rvjqd5k2U9PbFcikWgG8q2i34/dsPov+/4148+omdGLIfyh8XTVwG6oayE5c30sM5rxeqM/Ptuwhr7mJu8vlguxSLQDWVCCDEWxSLQDWVCCDEWxSIQQggxFloEQggxOMUiQOmGMiGEWD7hItANZUIIMQbFItANZUIIMRbFItANZUIIMRbut4Z0Q9mpspzhHtebwOT1EJxBj0R5RM88zqBwZluwvJmjZtu/DlTUn5MLkXEXgW4o6/ubhue43gS974lz6JEoj+iZx5nIb4ujeMY+wX+9Xp2FmRA9FItAN5S1X2PwnFdneVkW5tjjOguzHp9l9ZwM8ywv56zlrc7CLMpNmHk5+iizGhX1McuyupabsK71McvCHHucWy+qzdvJYI7CmVZPLJdiEeiGssPMhD3EE/Y27Ws9z0fnPnovizxmKMzxbPmsqOf53mwd78F9rM3byWA+14vlUywC3VDWfk+D57BexaO8Ga5bPjpX9ajWjGXeTNSzGsW9Wo1wD+vIW43iHtZehvVcH9Uo7uHJHsF8rhfLp1gEuqGs/TyD57BexyOcY70rj2COHsEcvZeh98A+eoZ7WEfeqxmvj9k6vpZ5udWecA5nV/Fi+RSLQDeUtZ9n8BzW63iEc6x7PIL5Oh7BHD2COXovQ++BffSI5Xb2eq9mvD5m6/ha5uVcRxnnc71YPsUi0A1lJ3KsI3jOq7O8LAvzqIceMxNn5i1HODdhhnlWKzeZt5wxtTLMsziL5rIs4xme9fqcmTjz5jjjOouzyGdZ7YGK+l5tp3mTZT09sVyKRaAbyraLfj92w+i/7/jXjz6iZ0Ysh/KHxdNXAbqhrITlzfSwzmvF6oz8+27CGvuYm7y+WC7FItANZUIIMRbFItANZUIIMRbFIhBCCDEWWgRCCDE4xSJA6YYyIYRYPuEi0A1lQggxBsUi0A1lQggxFsUi0A1lQggxFu63hnRD2amynOEe15vA5PUQnEGPRHlEzzzOoHBmW7C8maNm278OVJRnYc/6nAlhuItAN5T1/U3Dc1xvgt73xDn0SJRH9MzjTOS3xVE8Y5/gv16s0Qsxl2IR6Iay9msMnvPqLC/Lwhx7XGdh1uOzrJ6TYZ7l5Zy1vNVZmEW5CTMvRx9lVqOiPmZZVtdyE9a1PmZZmGOPc+tFNXoP7KNwptUTy6VYBLqh7DAzYQ/xhL1N+1rP89G5j97LIo8ZCnM8Wz4r6nm+N1vHe3AfaxTOYH9VL5ZPsQh0Q1n7PQ2ew3oVj/JmuG756FzVo1ozlnkzUc9qFPdqNcI9rCNvNYp7WHsZ1nN9VKO4h3Utx2yuF8unWAS6oaz9PIPnsF7HI5xjvSuPYI4ewRy9l6H3wD56hntYR96rGa+P2Tq+lnk517Ucs7leLJ9iEeiGsvbzDJ7Deh2PcI51j0cwX8cjmKNHMEfvZeg9sI8esdzOXu/VjNfHbB1fy7yc61qO2Vwvlk+xCHRD2Ykc6wie8+osL8vCPOqhx8zEmXnLEc5NmGGe1cpN5i1nTK0M8yzOorksy3iGZ70+ZybOvDnOuM7iLPJZVnugenM8zZss6+mJ5VIsAt1Qtl30+7EbRv99x79+9BE9M2I5lD8snr4K0A1lJSxvpod1XitWZ+TfdxPW2Mfc5PXFcikWgW4oE0KIsSgWgW4oE0KIsSgWgRBCiLHQIhBCiMEpFgFKN5QJIcTyCReBbigTQogxKBaBbigTQoixKBaBbigTQoixcL81pBvKTpXlDPe43gQmr4fgDHokyiN65nEGhTPbguXNHDXb/nWgoh7n1vNyITLuItANZX1/0/Ac15ug9z1xDj0S5RE98zgT+W1xFM/YJ/ivF2v0QsylWAS6oaz9GoPnvDrLy7Iwxx7XWZj1+Cyr52SYZ3k5Zy1vdRZmUW7CzMvRR5nVqKiPWZbVtdyEda2PWRbm2OPcel5tZw2cQeFMqyeWS7EIdEPZYWbCHuIJe5v2tZ7no3MfvZdFHjMU5ni2fFbU83xvto734L7VeGbhjIH5XC+WT7EIdENZ+z0NnsN6FY/yZrhu+ehc1aNaM5Z5M1HPahT3ajXCPawjbzWKe1h7GdZzfVSjuIcznCOYzfVi+RSLQDeUtZ9n8BzW63iEc6x35RHM0SOYo/cy9B7YR89wD+vIezXj9TFbx9cyL7faTs6jbK4Xy6dYBLqhrP08g+ewXscjnGPd4xHM1/EI5ugRzNF7GXoP7KNHLLez13s14/UxW8fXMi+32k7Oo2yuF8unWAS6oexEjnUEz3l1lpdlYR710GNm4sy85QjnJswwz2rlJvOWM6ZWhnkWZ9FclmU8w7NenzMTZ94cZ1xncRb5LKs9UL05nuZNlvX0xHIpFoFuKNsu+v3YDaP/vuNfP/qInhmxHMofFk9fBeiGshKWN9PDOq8VqzPy77sJa+xjbvL6YrkUi0A3lAkhxFgUi0A3lAkhxFgUi0AIIcRYaBEIIcTgFIsApRvKhBBi+YSLQDeUCSHEGBSLQDeUCSHEWBSLQDeUCSHEWLjfGtINZafKcoZ7XG8Ck9dDcAY9EuURPfM4g8KZbcHyZo6abf86UF5mwtfYDGdCGO4i0A1lfX/T8BzXm6D3PXEOPRLlET3zOBP5bXEUz9gn+K+X61YuRESxCHRDWfs1Bs95dZaXZWGOPa6zMOvxWVbPyTDP8nLOWt7qLMyi3ISZl6OPMqtRUR+zLKtruQnrWh+zLMyxx7n1anWUcY7CmVZPLJdiEeiGssPMhD3EE/Y27Ws9z0fnPnovizxmKMzxbPmsqOf53mwd78F9rqOM87leLJ9iEeiGsvZ7GjyH9Soe5c1w3fLRuapHtWYs82aintUo7tVqhHtYR95qFPew9jKs5/qoRnGvViPYm+vF8ikWgW4oaz/P4Dms1/EI51jvyiOYo0cwR+9l6D2wj57hHtaR92rG62O2jq9lXt6qEezN9WL5FItAN5S1n2fwHNbreIRzrHs8gvk6HsEcPYI5ei9D74F99IjldvZ6r2a8Pmbr+Frm5a0awd5cL5ZPsQh0Q9mJHOsInvPqLC/LwjzqocfMxJl5yxHOTZhhntXKTeYtZ0ytDPMszqK5LMt4hme9Pmcmzrw5zrjO4izyWVZ7oDjHmnM7zZss6+mJ5VIsAt1Qtl30+7EbRv99x79+9BE9M2I5lD8snr4K0A1lJSxvpod1XitWZ+TfdxPW2Mfc5PXFcikWgW4oE0KIsSgWgW4oE0KIsSgWgRBCiLHQIhBCiMEpFgFKN5QJIcTyCReBbigTQogxKBaBbigTQoixKBaBbigTQoixcL81pBvKTpXlDPe43gQmr4fgDHokyiN65nEGhTPbguXNHDXb/nWgenLse7kQGXcR6Iayvr9peI7rTdD7njiHHonyiJ55nIn8tjiKZ+wT/NdrtZ2cC9FLsQh0Q1n7NQbPeXWWl2Vhjj2uszDr8VlWz8kwz/Jyzlre6izMotyEmZejjzKrUVEfsyyra7kJ61ofsyzMsce59bzaTs6jDIUzrZ5YLsUi0A1lh5kJe4gn7G3a13qej8599F4WecxQmOPZ8llRz/O92Treg/tYo3AG+6t6sXyKRaAbytrvafAc1qt4lDfDdctH56oe1ZqxzJuJelajuFerEe5hHXmrUdzD2suwnuujGsU99nYymM/1YvkUi0A3lLWfZ/Ac1ut4hHOsd+URzNEjmKP3MvQe2EfPcA/ryHs14/UxW8fXMi+32k7Oo2yuF8unWAS6oaz9PIPnsF7HI5xj3eMRzNfxCOboEczRexl6D+yjRyy3s9d7NeP1MVvH1zIvt9pOzqNsrhfLp1gEuqHsRI51BM95dZaXZWEe9dBjZuLMvOUI5ybMMM9q5SbzljOmVoZ5FmfRXJZlPMOzXp8zE2feHGdcZ3EW+SyrPVC9OZ7mTZb19MRyKRaBbijbLvr92A2j/77jXz/6iJ4ZsRzKHxZPXwXohrISljfTwzqvFasz8u+7CWvsY27y+mK5FItAN5QJIcRYFItAN5QJIcRYFItACCHEWGgRCCHE4BSLAKUbyoQQYvmEi0A3lAkhxBgUi0A3lAkhxFgUi0A3lAkhxFi43xrSDWWnynKG5eU4v0nwvdHPAeX1tw0q6s/JhRCr4S4C3VA2/4MGXxP5TbKJ98X3QH8U8PO8OgszIcR2KBaBbihrv4bheazZmyzDGTxNOBf10ONMT+Z5q7Mwi3ITZrXcelFt3k4GcxTOtHpCiEOKRaAbyg4zE/Y8eAZr9AjmJuxjb1XvZZvyXhZ5D+5zHWWcz/VCiJJiEeiGsvZ7It4sqqeHHjMTZi0f1Sgv53nPRzWKe1yjuId1lHE+1wshSopFoBvK2s9DvFkv4zzytV6P9zL0SE+O3svQe0R9zrmOMs7neiFESbEIdENZ+3lGNNeTR77W6/Fehh7pydF7GXqPqM8511HG+VwvhCgpFoFuKDuRYx3BwhznEBRmOGOZqZWzz7Ka8yzMcAYxtTLMszjDOQYV5SbL8eRZy3p6QohDikWgG8rEvoN/ptBH9MwIMTLlD4unrwJ0Q1kJy5sR28eENfYxN3l9IcQhxSLQDWVCCDEWxSLQDWVCCDEWxSIQQggxFloEQggxOMUiQOmGMiGEWD7hItANZUIIMQbFItANZUIIMRbFItANZUIIMRbut4Z0Q9mpspxheTnObxJ8b/RzQHn9bYOKepxbz8uFEKvhLgLdUDb/gwZfE/lNson3xfdAfxTw87COvBBiOxSLQDeUtV/D8DzW7E2W4QyeJpyLeuhxpifzvNVZmEW5CbNabr1aXcsxQ+FMqyeEOKRYBLqh7DAzYc+DZ7BGj2Buwj72VvVetinvZZH34D7XtRyzuV4IUVIsAt1Q1n5PxJtF9fTQY2bCrOWjGuXlPO/5qEZxj2sU97COMs7neiFESbEIdENZ+3mIN+tlnEe+1uvxXoYe6cnRexl6j6jPOddRxvlcL4QoKRaBbihrP8+I5nryyNd6Pd7L0CM9OXovQ+8R9Tlv1Qj25nohREmxCHRD2Ykc6wgW5jiHoDDDGctMrZx9ltWcZ2GGM4iplWGexRnOMagoz8IcT561rKcnhDikWAS6oUzsO/hnCn1Ez4wQI1P+sHj6KkA3lJWwvBmxfUxYYx9zk9cXQhxSLALdUCaEEGNRLALdUCaEEGNRLAIhhBBjoUUghBCDUywClG4oE0KI5RMuAt1QJoQQY1AsAt1QJoQQY1EsAt1QJoQQY+F+a0g3lJ0qyxmWl+P8JsH3Rj8HlNffNqgoz8Ke9TkTQqyOuwh0Q9n8Dxp8TeQ3ySbeF98D/VHAz+M6yoQQm6dYBLqhrP0ahuexZm+yDGfwNOFc1EOPMz2Z563OwizKTZjVcuvNqRHsoXCm1RNCHFIsAt1QdpiZsOfBM1ijRzA3YR97q3ov25T3ssh7cN+rszDD3qpeCFFSLALdUNZ+T8SbRfX00GNmwqzloxrl5Tzv+ahGcY9rFPewruWYzfVCiJJiEeiGsvbzEG/WyziPfK3X470MPdKTo/cy9B5Rn3Ouazlmc70QoqRYBLqhrP08I5rrySNf6/V4L0OP9OTovQy9R9TnnOtajtlcL4QoKRaBbig7kWMdwcIc5xAUZjhjmamVs8+ymvMszHAGMbUyzLM4wzkG1Zvjad5kWU9PCHFIsQh0Q5nYd/DPFPqInhkhRqb8YfH0VYBuKCtheTNi+5iwxj7mJq8vhDikWAS6oUwIIcaiWAS6oUwIIcaiWARCCCHGQotACCEGp1gEKN1QJoQQyydcBLqhTAghxqBYBLqhTAghxqJYBLqhTAghxsL91pBuKDtVljMsL8f5TYLvjX4OKK+/bVBRf04uhFgNdxHohrL5HzT4mshvkk28L74H+qOAn+fVWZgJIbZDsQh0Q1n7NQzPY83eZBnO4GnCuaiHHmd6Ms9bnYVZlJswq+XWi2rzdjKYo3Cm1RNCHFIsAt1QdpiZsOfBM1ijRzA3YR97q3ov25T3ssh7cB9r83YymM/1QoiSYhHohrL2eyLeLKqnhx4zE2YtH9UoL+d5z0c1intco7iHJ3sE87leCFFSLALdUNZ+HuLNehnnka/1eryXoUd6cvReht4j6nNutSecw9lVvBCipFgEuqGs/TwjmuvJI1/r9XgvQ4/05Oi9DL1H1Oec6yjjfK4XQpQUi0A3lJ3IsY5gYY5zCAoznLHM1MrZZ1nNeRZmOIOYWhnmWZzhHIOK+l5tp3mTZT09IcQhxSLQDWVi38E/U+gjemaEGJnyh8XTVwG6oayE5c2I7WPCGvuYm7y+EOKQYhHohjIhhBiLYhHohjIhhBiLYhEIIYQYCy0CIYQYnGIRoHRDmRBCLJ9wEeiGMiGEGINiEeiGMiGEGItiEeiGMiGEGAv3W0O6oexUWc6wvBznNwm+N/o5oLz+tkFFeRb2rM+ZEGJ13EWgG8rmf9DgayK/STbxvvge6I8Cfh7W6IUQ26dYBLqhrP0ahuexZm+yDGfwNOFc1EOPMz2Z563OwizKTZjVcutFNXoP7KNwptUTQhxSLALdUHaYmbDnwTNYo0cwN2Efe6t6L9uU97LIe3AfaxTOYH9VL4QoKRaBbihrvyfizaJ6eugxM2HW8lGN8nKe93xUo7jHNYp7WNdyzOZ6IURJsQh0Q1n7eYg362WcR77W6/Fehh7pydF7GXqPqM8517Ucs7leCFFSLALdUNZ+nhHN9eSRr/V6vJehR3py9F6G3iPqc851LcdsrhdClBSLQDeUncixjmBhjnMICjOcsczUytlnWc15FmY4g5haGeZZnOEcg+rN8TRvsqynJ4Q4pFgEuqFM7Dv4Zwp9RM+MECNT/rB4+ipAN5SVsLwZsX1MWGMfc5PXF0IcUiwC3VAmhBBjUSwC3VAmhBBjUSwCIYQQY6FFIIQQgxMugvxzgvz/J8j/Omn+10fPOecF6fnPf3567vOed/Afmzvr7LPTc5/7vHSPe97zlNcJIYQ4XoSLIC+BfFWl8cnMJw/Ji+Jtb3vbwWK4xz3uccprhRBCHB/CRZC/EsgL4OOf+ET6+Mc/kf714x9P//qvH0/XZq7914NF8L73ve9gGZx51lmnvFYIIcTxIVwE+dtBeRHky2aYvAzyInjKU55ywG88/TdPea0QQojjQ7gI8s8EDr4isK8G8mlfEUz8y/RVQeYTn/xk+vXfePopr0VYrRx7XpYV5VnY6wVfZ8K+EEIsmWIRvOo6X5DeMPH6iddNvPYkfz3xmonLTvJXE3858b9P8hcTr7jOTYsHGNGHK+dYm7eT81bWC74WvRBCjECxCPIS+PB1bpY+NPHBiX+c+MDE+6/zhel9E++d+IeJ90xcPXHVxLsn/n7iz6fX8gMy0YdrlBvWt5PzqEZQrR6KZ4UQYqkUiyB/JZCXgOnjf/zq9IGb3uZkldKnP/yR9NGf/IWDJWC69o//LF3ZWARZvblhPTvNZ1kdZdhb1QshxAgUiyB/Oyh/JZD14a++Z/rUO69MH7nvAw7q/JXAB6bswJ/21Qdn/kogL4F3Tbw6WARGVm/OmcnrGV6O2VwvhBAjUCyC/POA/O2grGvPueDgfN/Jrwjs20Gfmr4qeP+9vuMgy18NfPTXn53eOeV/VvkZQSarN/cyI+p5OWZzvRBCjIC7CPLPBLI+NH3Y5yWQvxLIykvgH6evDj45fZWQvxLIyl8J5CXwd9PrXrWhRcA1MreH2VwvhBAjUCyC/G8H5R8MZ+EPhrPyAvj46/4mfWBaBvnbQVm2BN4RLALU3DyLc5zFPIvzWj/qoRdCiBEoFkH+V0Rb/3aQ/UwAl8DbJ/608RXBLtAHuxBC1CkWwR9OH+bR/0/gf03kfzMok38wnH8mkL8KyOQl8LsT/IBdo0UghBB1ikVg5P9sxMF/Z6iDxz7+jFNeK4QQ4vgQLoL8n434tV//9fTUp/1aespTn5ae9JSnpF990pPTE3/1SemXn/gr6YxffmJ6/BOecLAEHvO4x5/yWiGEEMeHcBEIIYQYAy0CIYQYnHARfOmXfmm63W3vGHL66bdNd7zjHU95jRBCiONHuAhOP/309I1f/Zh0r696VMGd7/DQdL+7PUvLQAghFkC4CG4zLYJ7fvWj0p1O++6C0/7tPdNjv+vq9N13fUa6zW1O1zIQQohjTLgITrvNbdI9vuoX0x1v/V0FeRE86b987MQy+IbfPPg2Er5WCCHE8aG+CL7y59Mdb3XfgtO++O7plje/ywFfcdr9061PO+2U1yKsVo49L8uK8izszWGd1wohxHGmugju9hWPTHe45Xeewv/+vXund7zh3ul2t/jWA/LPC06rLAIj+qDlHGvzdnLeyuaw7uuFEOK4Ul0Ed73jI9I9Tr93uuBBX5Me+e33TF9/h3unT7/rm1L60Leny3//m9Ldvuo+BzN5Fl/LRB+yUW5Y307OoxrBnuf5FEKI0agugq//soenK+5715SecIt0zdPvmH7/21+Q/urhz0uffNO0DK785vT+P/u2g5meRZDVmxvWs9N8ltVRhr3IZ3k9IYQYieoiuMvtfzx96r/+n+lTZ9w+ffrsL08ffv53pt/91vemj/3ZfVN6/d3Tp6/41oOZ1iIwog9bL+fM5PUML8cs8l4thBCjEC+C005Ld77df0uf+g/TP/0/6P9If/yAR6RHf/d709O+95Ppil/7iZT+8M7pk39xz4OZnp8RZKIPWy/3MiPqeTlmkfdqIYQYheoi+Lrb/HB69+kPSuk/3j196P7fkp58v6els3746emfn/yVKT3/K9OHnnyvg5lNLwKukbk9zCLv1UIIMQrVRfC1pz0o/eQXfF/64O0ekNI9vjmlb7tbSt9955S+72vT++739emJ33Cvg5naIkDNzbM4x1nMszivzaDHGcyEEGIE6ovgVj+QTv+ie6SHfcH905u+6MHp7255v/SOW31HuvwW35V+4Uvuc9DLM71fEQghhNg/qovga275gHSbm929Sp7RIhBCiONLdRF89S2/rwstAiGEOL6Ei+C2t7tdutWtb51ueas6eSbP4muFEEIcH8JFIIQQYgy0CIQQYnC0CIQQYnCKRfBzD/x36b0vvl7655ddN33s0uumay65XvqnS66frjjn89M33/X2xRsIIYQ43hSL4G0vvMHBAvjYpddP11x6g2kJ3CB99OIbTtwovfn5N013/po7FG8ihBDi+FIsgmsuvd5EXgKflz56ycS0AD5y8Y3Th1/6+RP/Jn3oJTed+IL0wYu+MP3jRTebuHn6wItvnt5w9pekR3z/bYsHCCGE2G+cRZC/CshfAWRunD5ysABukj586Rena1/zwJTe/cyUrvyNiaem9HdPTOkdj03pbf8jpbf+XPrIZQ8pHoD/2Qb0COYonjH15Njj3HroWThrM1ybMGdQUd/LGZTX3zSt57Ba+TaY8/4or9/D3NfiPPpVWPf1QtQoFsGnrzonpfdfktL7LkrpvS9K6T3npnT1lF115vTh/7Tpw//x04f/L6X09l+cPvx/fuKRKV3xiJTe8hMpvenHigfgH2D0iOV2rpvXvNVZmCHcM9X6WEe5V2dh5tEzsyv418b1Nul9Vu/cHHres2dGiH2gWATpqrOmf+p/Rkp/n/+pf/rgf9eTUnrn9E/+BwvgMdMCmP7p/+3//eQC+KlpATw8pTc/dFoCP5rS3/5w8QD8m8HE/Szz3FslZzA3byfDudV2svfqKMfavJ0RPf0sL8vCHHutHL3XtwzrKDNMXpbVO4M511mcYc2YvCyLc6+P8uY9b7IMQWFW6wuxDuUi+MwCePLJBXDGyQXwqJTelhfAz04L4KcnfnJaAg+bFsBDpgXwIyld/qCU3vj9xQPwD6v51mlYbWdvzni5l3m51XZ6PstqhHOuowyp9bG3Ke9l6BGTl5kwX9UjmM/1DPbW8QjmkUeiPIO9Hi/EqhSL4Pzzz0/XXnvtAddcc006+4xvTFdfffV03vPE+fi7nzgf9w0nz7scnG9605vSmWeeWTwA/6Cab52G1Xb25q0syjnDGr3VWdxjWc5ztQzBvolrE+aRR1nOcz01gj30CAvzlrfa5M2wajNcmzCf4602eTPorTZhjv2ojrwQq1Isgre+9a0H/MzP/Ex6z3veky677LL0+te/vnm++tWvTk9+8pOLB+Af1Ja3c928lUU5Z56wj3M9OddRhnAfa/QI5pH3wD76WsY5eqQn35RHOMcaPYL5UXqEc6wjL8SqFIvgggsuSO9617vS29/+9vSWt7zl4IP+7Mff7cT5uK8/ed7lxPnYO588vzZdeuml6dGPfnTxAPyDih6x3M5186hGvJ6XGVEvyjPc4zrKEO5jjR7BPPIe2EdfyzhHj/Tkm/II51ijRzA/St+bRV6IVSl/RvC2X0hvfOMb0+te97qDD/n0Zvw5wA+m9MYHpPQ335vS679n4r4pvfY+Kf31vVN6zbekdNm9igfgH1T0COYonjHNzbOiPMtym/HgvgkzD1SUm7CPsKIeZp632sQZz7X6Js6xRlCYtbzVJs5qM5xnRT3MenwW11nejJ3cy8Ks1Yv6QqxDsQg+8pqHpj//8z9Pr3rVq9If/dEfTQvgwdMC+KFpAfzAiQXwhvtNC+A/TwvgO6YF8J9OLoBvTOmv7p7e/fJ/XzxACLFZtADEpikWwSO+73bpFa94RfqZ+93k4Ns973nRaenqC26Trrrg9PTu82+b/v78203cPl153h3Su869Q3rnuXec+PJ0+XO+Ij38/v5DRB8sb0YI/dkQm6ZYBJkXv/jF6cILL0znnXfeKcNCCCGWh7sIhBBCjIMWgRBCDI4WgRBCDI4WgRBCDE6xCHRDmRBCjEWxCHRDmRBCjEWxCHRDmRBCjIWzCJZxQxnL63mZadWcQUV9Lze4zzVS682BFc14eQ8sb6aGCWvsY57l9XpAef1N03oOq5Vvg228/zbeU8yjWARLuaEsyrBGX8u8nGsPnvHqLMwY7nON1Hpz6HmfnhkP73VexuAMegZ76Oeyzmu3Df/auN4mR/kscXQUi2BJN5RxzXCf61ruZQzPYG3ezgjuY20eT5PNrJpjjaBquZ3Y93LOPB9p7hzOcOadESYvy8Ice60cvde3DOsoM0xeltU7gznXWZj15FmY1fpi+5SLYEE3lJkwQ7hnwizKUZgj3OM6yhDuY22KeuYRzGseFc30ejvZe9lcX+uhr/VMXo/B3qa8l6FHTF5mwnxVj2A+10fgTI8X26VYBEu7oSzKvcyIej05K5qrZQj3sUbf0zN5M5FHMJ/j7WTvZXN9rYe+1kPv9bK4NmEeeZTlPNdTI9hDj7Awb3mrTd4My3KeY7iHdeTFdikWwdJuKItyLzOi3ro511GGcB9r9LXeOh7BfI63k72XzfW1HvpaD32rRo9gHnkP7KOvZZyjR3ryTXmPqM851pEX26VYBEu6oSzKuWai/ro511GGcB9r9LXeOh7BvMf31JzN9bUe+loPfatGj2AeeQ/so69lnKNHevJNeQ+v38oiL7ZL+TOCBd5QFuVZc+Z7cgYV5SbsIyjOuTZhHvVqHmU593pzrC1D1fqcmbecaxPnXh8zrC1DRT3MPG+1iTOea/VNnGONoDBreatNnM2ZsQx7WdyL+mL7FItAN5SJdeC/gbkWoob+vOyGYhHohrLdwfJm9hEU51gL0UJ/ZnZDsQgyuqFMCCHGwV0EQgghxkGLQAghBkeLQAghBkeLQAghBqdYBLqhTAghxqJYBLqhTAghxqJYBLqhTAghxsJZBMu+oYzlvcbLsnpyBhX1vdyI+lHewzqv9fDkzTG9c0KI7VIsgqXfUBblWJu3szdnOPfqLMyYqB/l+8A+/9qEECXFIhjhhrIoN6xvZ2/OcI61eTsjTOtkWZxzbfJm0FudhRn2otyEWa0vhDgaykUwwA1lJs4N7KFqfasRzrmOMsT60bkvvpYh2O/xQojtUyyCUW4oi3LOrLYT8yzusSznuVqGWD86d+FRlvOcB/exjrwQYvsUi2CUG8qiHDP0Xj035zrKEOzvm2dqvQz3sY68EGL7FItghBvKonxuHWUG97iOMiTqY74rz8ztYRZ5IcT2KX9GMNANZVGe1TuPmQcqyk3Yx7me3MRZy1ttWjVHj1iO4l7UF0IcDcUi0A1l47LLD+FdPluI0SkWgW4o2x0sb2ab7OKZxi6fLcToFIsgoxvKhBBiHNxFIIQQYhy0CIQQYnC0CIQQYnC0CIQQYnCKRaAbyoQQYiyKRaAbyoQQYiyKRaAbyoQQYiycRTDmDWUsL49ms6zHoKK+lxssy3gmqlE4Yz2uWd4c0+ozPI81Cmewx3mL6DVR3sM6r/Xw5M0xvXNC1CgWgW4omzczJ/fqLMyYqI95j/eI+lEese481pH36l6i10X5PrDPvzaxPIpFMOoNZT0Z11FmcA9r83ZGRH3Lo5M9Yz07vV6tzuI6y5vL4jyq0WON4n4WZ3xm8UxWb5bFOdcmbwa91VmYYS/KTZjV+kL0UC6CQW8oQ/Xk2PfyDPe4jjKEhXntNLjm3E6v59XovQw9grknb45r9LWeiXvRuS++liHY7/FCtCgWweg3lHFu3k4kylDcwzrKkKhveXQinGGNPsrm1OitNtVmNtlDj3V07sKjLOc5D+5jHXkhWhSLYPQbyjC3k/OoZrjPdZQhUd/y6GQwZ+Gc9Ws1Z+v4bfTQ13r74JlaL8N9rCMvRItiEYx8QxnndnIe1Qz3uY4ypNbnHtcI9tCvUnO2jq/10LfqyHu1l+/KM3N7mEVeiBblzwh0Q1l3jnUEKspN2Mc5L89wz6tN0YyX1WpTrc89U20GvQlnrOdlWZzV6ig3cdbyVptWzdEjlqO4F/WF6KFYBLqhTIjV2eWH8C6fLY43xSLQDWW7g+XNiP1ml/+77fLZ4nhTLIKMbigTQohxcBeBEEKIcdAiEEKIwdEiEEKIwdEiEEKIwSkWgW4oE0KIsSgWgW4oE0KIsSgWgW4oE0KIsXAWwXg3lHmyeXwd1yjsIaio7+UIyutvA5PXqxG9Jsp7WOe1Hp68OaZ3TojjRrEIRr2hDOGeiTOsPXjGq7MwY1r9bbHqc6PXRfk+sM+/NiGOgmIRjHpDmcE9q+3kvAbPYG3ezoha3+RlWavmKG+WMz6zeCarN8vinGuTN4Pe6izMsBflJsxqfSGOK+UiGPSGMux5tZ2YmzBHuMd1lDHeDGbreARz9LWeiXvRuS++liHY7/FCHEeKRTDyDWW1Gj2DPVY0V8s8eI7lzfV4q021mZbHOjp34VGW85wH97GOvBDHkWIRjHxDmVezsI9zPTnXURaBs+gRzDflaz30td4+eKbWy3Af68gLcRwpFsHIN5RxjazS45zrKIvAWfQI5pvytR56r/byXXlmbg+zyAtxHCl/RjDwDWVYM9xHYc6gotyEfW+upzfXW22KZizL4qxWR7mJs5a32rRqjh6xHMW9qC/EcaVYBLqhTBwXdvkhvMtnC7FpikWgG8p2B8ubEYfs8vdol88WYtMUiyCjG8qEEGIc3EUghBBiHLQIhBBicLQIhBBicLQIhBBicIpFoBvKhBBiLIpFoBvKhBBiLIpFoBvKhBBiLJxFsOwbyrDPWZSbOLeelxuoqO/lBve53gQmr4fgDHokyiN65nEGhTP7CP4aWTi3Kzb96zB5vR5QXn/TtJ7DauXbYBvv771nsQhGuKHM1JNjjd7qLMwQ7nl1FmYM97neBL3viXPokSiP6JnHmcjvI/jrQ79U1vlrXOe124Z/bVxvk6N6VrEIln5DmWV2tnIEe+bt9OAe1ubtjOC+V2d5WRbm2OM6C7Men2X1nAzzLC/nrOWtzsIsyk2YeTnKm8vCPOqhjzKrUVEfsyyra7kJ61ofsyzMsVebM3HmnREmL8vCHHutHL3XtwzrKDNMXpbVO4M511mY9eRZmHG/XAQLv6HMajuZKM94PS8zuMd1lCGesLdpX+t5Pjr30XtZ5D2wv4pH8YydLZ8V9Tzfm63jowxr9llej8HepryXoUdMXmbCfFWPYD7XR+CM54tFsOQbyuxkj6ybs7iHdZQh3Md6FY/yZrhu+ehc1aNaM5Z5M1HPahT3sLbMhNmqnuEe1pG3GsU9rL0M67l+bh15r5fFtQnzyKMs57meGsEeeoSFectbbfJmWJbzHMM9rM0Xi2DJN5R5imbXzTPc4zrKEO5jvY5HOMd6Vx7BHD2COXovQ++B/W14hntYR96rGa+P2Trey9DXeuhbNXoE88h7YB99LeMcPdKTb8p7RH3OsTZfLIJRbijzsij3MmNOj+soQ7iP9Toe4RzrHo9gvo5HMEePYI7ey9B7YH8bHrHczl7v1YzXx2wd72Xoaz30rRo9gnnkPbCPvpZxjh7pyTflPbx+KzNf/oxg4TeUYZ9rlpe35hlUlJuwj3OtOsvLsjCPeugxM3Fm3nKEcxNmmGe1cpN5yxlTK8M8izOcwzwLM89bbfKyLMusjzXK63Nm4syb44zrLM4in2U19zHL4gxry1BRDzPPW23ijOdafRPnWCMozFreahNnc2Ysw14W97BfLALdUHb8yfJycTzQ/37iqLA/a8Ui0A1lu4PlzfSwzmvF7tH/fuKosD9rxSLI6IYyIYQYB3cRCCGEGActAiGEGBwtAiGEGBwtAiGEGJxiEeiGMiGEGItiEeiGMiGEGItiEeiGMiGEGAtnEeiGMq5NmGPfyw1U1Pdyo9VfBXtPOzmPagb76FeB5c3UMGGNfcyzvF4PKK+/aVrPYbXybbCN99/Ge4qYYhHohrLDHH1UZ2GGcM+rszBjWv1VwPfs8RE4g34u3mu9jMEZ9Az20M9lndduG/61cb1NjvJZYjsUi0A3lB3m6KOenR7cw9q8nRFRH9WTRz3z0WneZJk3E/ksq7HPJ4KZ5yPNncMZzrwzwuRlWZhjr5Wj9/qWYR1lhsnLsnpnMOc6C7OePAuzWl9slnIR6IayojZhjn0vz3CP6yhDWv0Mzqzqo5PB3PN2tnyW1/Oyub7WQ1/rmbweg71NeS9Dj5i8zIT5qh7BfK6PwJkeLzZHsQh0Q5n/nnYynLO4h3WUIbU+CrNVfHQaKMzY22kexbNRzdlcX+uhr/XQe70srk2YRx5lOc/11Aj20CMszFveapM3w7Kc5xjuYR15sTmKRaAbyg4z9F4dZQb3uI4yJOpjvgkfnXN8ltXcr+VcczbX13roaz30rRo9gnnkPbCPvpZxjh7pyTflPaI+51hHXmyOYhHohrLDHL1XR5nBPa6jDIn6mK/j59Ytbyd7hHOuOZvraz30tR76Vo0ewTzyHthHX8s4R4/05JvyHl6/lUVebI7yZwS6oewz4rxnnkFFuQn7PXMozDxvtYnzWm2ZiTPzmPNMltfHDFXrc2becq5NnHt9zLC2DBX1MPO81SbOeK7VN3GONYLCrOWtNnE2Z8Yy7GVxL+qLzVIsAt1QJoTYJ7QAtk+xCHRD2e5geTNCjIb+Xtg+xSLI6IYyIYQYB3cRCCGEGActAiGEGBwtAiGEGBwtAiGEGJxiEeiGMiGEGItiEeiGMiGEGItiEeiGMiGEGAtnEYx7Q5nJy0zYsz5nCCrqe7nB8nKc3yT43ujngPL6m8bk9WpEr4nyHtZ5rYen2gz3tkHrOaxWvg3Wff91X38cKBbBqDeUcc14fRPnBve8OguzGjgb+U2yiffF90C/LVZ9RvS6KN8H+NfG9T7Bvzaut8lRPuu4UiyCEW8oQ+/h9S2z04N7WJu3swXPYc3eZBnO4GnCuaiHHmd6Ms9bnYVZlJsw4xwVzWDGZxbPZPVmWZxzbfJm0FudhRn2ajVj8rIszLHXytF7fcuwjjLD5GVZvTOYc52FGfeyMKv1l0C5CAa8ocy8yXLsZ3FuPS/PcI/rKPPgOazRI5ibsI+9Vb2Xbcp7WeSjDGv2WdyLzn3xUcY1gr1NeS9Dj5i8zIT5qh7BvMcz2Ovxx51iEYx4Q5nJ6yFezhmLe1hHGePNoHp66DEzYdbyUY3ycp73fFSjuNdbRx7r6NyFR1nOc15m4tqEeeRRlvNcT41gDz3CwrzlrTZ5MyzLEc6xjvxxp1gEI95QZifPM17uZQb3uI4yxpvxMs4jX+v1eC9Dj/Tk6L0MvQf20dd66Gu9ffCM1+MMa/QI5pH3wD76WsY5eqQn35SP4BmsI3/cKRbBiDeUoffqWu5lBve4jjIk6vfkka/1eryXoUd6cvReht4D++hrPfRe7eW78ozX4wxr9AjmkffAPvpaxjl6pCfflPfw+phF/rhT/oxAN5TNzk3Y9+ai3IT9aA5znENQmOGMZaZWzj7Las6zMMMZxNTKMM/ijOewtiyLs1od5SbOWt5q06o5eoYV9TDzvNUmzniu1TdxjjWCwqzlrTZx1ppp9aL+EigWgW4oE2K7LO1DZCSW+r9dsQh0Q9nuYHkz4vij/22PL0v9365YBBndUCaEEOPgLgIhhBDjoEUghBCDo0UghBCDo0UghBCDUywC3VAmhBBjUSwC3VAmhBBjUSwC3VAmhBBj4SyCMW8oQ83Ns7CHoKK+lyMor79J+Blce9RmTF6vB5TX3zSt57Ba+TbYxvtv4z3F8aFYBCPeUIYeazs593oePOPVWZgxrf6m4edxPZd1Xr/Oa7cN/9q43iZH+SwxBsUi0A1l/gzX6CN4BmvzdkZEfRTnnrc6K+rVcvOm2oydKOtjjzPvjDB5WRbm2Gvl6L2+ZVhHmWHysqzeGcy5zsKsJ8/CrNYXy6ZcBAPfUGY+i+ssy2o5wj2uo4xpzWC/x3Nmp3mW9RDM2Wd5Pa7ZZ3k9Bnub8l6GHjF5mQnzVT2C+VwfgTM9XiyXYhGMeEOZ1VncM2+nB/ZY0Vwt8/DmUJi1PGd2so9qkzeDvlVH3utlcW3CPPIoy3mup0awhx5hYd7yVpu8GZblPMdwD+vIi+VSLIIRbyhjLLeTc6Y35zrKInB2Hc+ZnexrvR7fqiPfqtEjmEfeA/voaxnn6JGefFPeI+pzjnXkxXIpFsGIN5RFOXqvnptzHWUROLuORziv1XN9q458q0aPYB55D+yjr2Wco0d68k15D6/fyiIvlkv5M4LBbyjDDPOsnpxBRbkJ+95cbw/l5ZzNrU3eDHqvtiyLM6wtQ0U9zDxvtYkznmv1TZxjjaAwa3mrTZzNmbEMe1nci/pi2RSLQDeUjYX+ZheM/kyMR7EIdEPZ7mB5M5vkKJ4hjh/6czEexSLI6IYyIYQYB3cRCCGEGActAiGEGBwtAiGEGBwtAiGEGJxiEeiGMiGEGItiEeiGMiGEGItiEeiGMiGEGAtnESz7hjKWl1u2yjyDivpezvAc1ug3DcubqWHCGvuYZ3m9HlBef9O0nsNq5dtgG++/jfcUu6dYBEu/oYxrL8MafZRxHeVenYVZRG2u1lsH7329jMEZ9Az20M9lndduG/61cb1NjvJZ4nhTLIJRbiirZVijjzKuoxxr83bWsBk7W96EtfV5jjPvRDDzfKS5czjDmXdGmLwsC3PstXL0Xt8yrKPMMHlZVu8M5lxnYdaTZ2FW64vjSbkIBrihzIQZz6A31fpWI5xzHWWMzdi5TZ/l9bxsrq/10Nd6Jq/HYG9T3svQIyYvM2G+qkcwn+sjcKbHi+NHsQiWfENZlNvJOYO5KcpNlvNcLUOwv0mP8ma8mrO5vtZDX+uh93pZXJswjzzKcp7rqRHsoUdYmLe81SZvhmU5zzHcwzry4vhRLIIl31AW5XZyzqybcx1lCAvzTXiEc645m+trPfS1HvpWjR7BPPIe2EdfyzhHj/Tkm/IeUZ9zrCMvjh/FIhjlhjLM7eSc8XIvM7jHdZQh3LfaznU9wjnXnM31tR76Wg99q0aPYB55D+yjr2Wco0d68k15D6/fyiIvjh/lzwgWfkMZahM5Zh6oKDdh32aizE7zWV7ueatN0YxlqFqfM/OWc23i3OtjhrVlqKiHmeetNnHGc62+iXOsERRmLW+1ibM5M5ZhL4t7UV8cT4pFoBvKhBA9aAEsh2IR6Iay3cHyZoTYF/RndDkUiyCjG8qEEGIc3EUghBBiHLQIhBBicLQIhBBicLQIhBBicIpFoBvKhBBiLIpFoBvKhBBiLIpFoBvKhBBiLJxFMOYNZdjDDHtzcgMV9b3ciPpRvi34eVx71GZMXq8HlNffNK3nsFr5NtjG+2/jPcX+USyCEW8o4xy91VmY1XKDe16dhRkT9aN8k+Az0Hv1XNZ5/Tqv3Tb8a+N6mxzls8SyKBbBiDeUMThj3s5WjnAPa/N2RphqGYrn8DRvsgzzaM5O7KM31WbsRFkfe5x5Z4TJy7Iwx14rR+/1LcM6ygyTl2X1zmDOdRZmPXkWZrW+WAblIhjwhjLG63lZLc9wj+soQ6wfnQzmpqg317Osh2DOPsvrcc0+y+sx2NuU9zL0iMnLTJiv6hHM5/oInOnx4vhTLIIRbyhrZXNyFvewjjLE+tFpoDDjmU34qDZ5M+hbdeS9XhbXJswjj7Kc53pqBHvoERbmLW+1yZthWc5zDPewjrw4/hSLYMQbylrZKnmGe1xHGYL9dXytN9fXej2+VUe+VaNHMI+8B/bR1zLO0SM9+aa8R9TnHOvIi+NPsQhGvKEsqpGoF+UZ7nEdZUjUx7zH13pzfa3X41t15Fs1egTzyHtgH30t4xw90pNvynt4/VYWeXH8KX9GoBvKDhTlWbWcQUW5Cfs415OjohnLTF4eZXZij2uTN4Peqy3L4gxry1BRDzPPW23ijOdafRPnWCMozFreahNnc2Ysw14W96K+WAbFItANZWOgv5nFXPRnZrkUi0A3lO0OljezDiivL0QN/blZLsUiyOiGMiGEGAd3EQghhBgHLQIhhBgcLQIhhBgcLQIhhBicYhHohjIhhBiLYhHohjIhhBiLYhHohjIhhBgLZxHohjLMsDcnN1BRj3Mk6kf5tuDnce1RmzF5vR5QXn/T9DzH5GUm7G2abbz/Nt5T7B/FItANZf5rsjCr5Qb3sI48E/WifJPgM9B79VzWef06r90W+GuK/LY5ymeJZVEsAt1QduqMeTtbOcI9rlt5xlTLUDyHp3mTZZhHc3ZiH72pNmMnyvrY48w7I0xeloU59lo5eq/PPc8zJi/L6p3BnOsszHryLMxqfbEMykWgG8rcnpfV8gz3uG7lGetFJ4O5KerN9SzrIZizz/J6XLPP8noM9jblvQy9B/ZZ0cwcj2A+10fgTI8Xx59iEeiGsvXeg8U9rKMMsX50GijMeGYTPqpN3gz6Vh15r5fFtQnzyKMs57meOsq5xhyFectbbfJmWJbzHMM9rCMvjj/FItANZeu/h8E9rqMMwf46vtab62u9Ht+qI9+q0SOYR94D++jnZFzPyTflPaI+51hHXhx/ikWgG8pOnTGiXpRnuNeqPaIZzHt8rTfX13o9vlVHvlWjRzCPvAf20UcZ11HWm2/Ke3j9VhZ5cfwpf0agG8oOFOVZtZxBRXkW9pCoxzkqmrHM5OVRZif2uDZ5M+i92rIszrC2DBX1MPO81SbOeK7VR2GOcwgKs5a32sTZnBnLsJfFvagvlkGxCHRD2Rjob2YxF/2ZWS7FItANZbuD5c2sA8rrC1FDf26WS7EIMrqhTAghxsFdBEIIIcZBi0AIIQZHi0AIIQZHi0AIIQanWAS6oUwIIcaiWAS6oUwIIcaiWAS6oUwIIcbCWQS6oSyazcJ5m+EMQUV9L2dQXt8D5fUZljdTw4Q19jHP8no9oLz+pmk9h9XKt8E23n8b7yn2k2IR6IayGJ4xYYZwz6uzMPPomWHmvsab9zIGZ9Az2EM/l3Veu23418b1NjnKZ4nlUSyCEW8o8zKGZ6y204N7WJu3M6Knn8UZ1oyJM6w583ykuXM4w5l3Rpi8LAtz7LVy9F7fMqyjzDB5WVbvDOZcZ2HWk2dhVuuL5VAuggFvKDNvshyZm2e4x3WUIbU+9iLPYC/yXjbX13roaz2T12OwtynvZegRk5eZMF/VI5jP9RE40+PFMigWwYg3lJk4j2qEeyzuYR1lCPZNUS/yWVHP814219d66Gs99F4vi2sT5pFHWc5zPTWCPfQIC/OWt9rkzbAs5zmGe1hHXiyDYhGMeEOZnZxHNTKnx3WUIdzHusfXepH3srm+1kNf66Fv1egRzCPvgX30tYxz9EhPvinvEfU5xzryYhkUi2DEG8rs5DyqkTk9rqMM4T7WPb7Wi7yXzfW1HvpaD32rRo9gHnkP7KOvZZyjR3ryTXkPr9/KIi+WQfkzAt1QVuRYY85qzUW5CfsIy+thhrnJ62GGuanW58y85VybOPf6mGFtGSrqYeZ5q02c8Vyrb+IcawSFWctbbeJszoxl2MviXtQXy6FYBLqhTAjBaAEsm2IR6Iay3cHyZoTYBfrzuGyKRZDRDWVCCDEO7iIQQggxDloEQggxOFoEQggxOFoEQggxOFoEQggxOFoEQggxOFoEQggxOFoEQggxNHdK/z+7SZic4JELrQAAAABJRU5ErkJggg==;" vertex="1" parent="1">
          <mxGeometry width="386" height="709" as="geometry" />
        </mxCell>
        <mxCell id="acW1Ckd2XEiPTocVWJh1-7" value="character_&lt;div&gt;clothes_&lt;/div&gt;&lt;div&gt;hair_&lt;/div&gt;&lt;div&gt;poses_&lt;br&gt;&lt;/div&gt;&lt;div&gt;environment_&lt;/div&gt;&lt;div&gt;props_&lt;br&gt;&lt;/div&gt;&lt;div&gt;tools_&lt;/div&gt;&lt;div&gt;effects_&lt;/div&gt;" style="text;html=1;align=left;verticalAlign=middle;whiteSpace=wrap;rounded=0;labelBackgroundColor=default;fontColor=#FFFF00;" vertex="1" parent="1">
          <mxGeometry x="386" y="240" width="90" height="120" as="geometry" />
        </mxCell>
        <mxCell id="acW1Ckd2XEiPTocVWJh1-8" value="&lt;div&gt;G3_&lt;/div&gt;&lt;div&gt;G3M_&lt;/div&gt;&lt;div&gt;G3F_&lt;/div&gt;&lt;div&gt;G8_&lt;/div&gt;&lt;div&gt;G8M_&lt;/div&gt;&lt;div&gt;G8F_&lt;/div&gt;&lt;div&gt;G9&lt;/div&gt;&lt;div&gt;G9M_&lt;/div&gt;&lt;div&gt;G9F_&lt;/div&gt;&lt;div&gt;&lt;br&gt;&lt;/div&gt;" style="text;html=1;align=left;verticalAlign=middle;whiteSpace=wrap;rounded=0;labelBackgroundColor=default;fontColor=#66B2FF;" vertex="1" parent="1">
          <mxGeometry x="500" y="240" width="50" height="150" as="geometry" />
        </mxCell>
        <mxCell id="acW1Ckd2XEiPTocVWJh1-9" value="" style="endArrow=classic;html=1;rounded=0;exitX=0.25;exitY=0;exitDx=0;exitDy=0;" edge="1" parent="1" source="acW1Ckd2XEiPTocVWJh1-7">
          <mxGeometry width="50" height="50" relative="1" as="geometry">
            <mxPoint x="480" y="460" as="sourcePoint" />
            <mxPoint x="422" y="202" as="targetPoint" />
          </mxGeometry>
        </mxCell>
        <mxCell id="acW1Ckd2XEiPTocVWJh1-10" value="" style="endArrow=classic;html=1;rounded=0;exitX=0.25;exitY=0;exitDx=0;exitDy=0;" edge="1" parent="1" source="acW1Ckd2XEiPTocVWJh1-8">
          <mxGeometry width="50" height="50" relative="1" as="geometry">
            <mxPoint x="640" y="520" as="sourcePoint" />
            <mxPoint x="476" y="201" as="targetPoint" />
          </mxGeometry>
        </mxCell>
        <mxCell id="acW1Ckd2XEiPTocVWJh1-11" value="&lt;div&gt;-Aqui descomprimo los .ZIP&lt;/div&gt;&lt;div&gt;-Corto el contenido y lo pego en MiLibreriaDAZ&lt;/div&gt;-Este Folder lo dejo vacio as&lt;span style=&quot;color: light-dark(rgb(0, 0, 0), rgb(255, 255, 255));&quot;&gt;i me doy cuenta que este asset ya lo he enviado a mi libreria de DAZ&lt;/span&gt;" style="text;html=1;align=left;verticalAlign=top;whiteSpace=wrap;rounded=0;labelBackgroundColor=#FF0000;" vertex="1" parent="1">
          <mxGeometry x="281" y="10" width="300" height="70" as="geometry" />
        </mxCell>
        <mxCell id="acW1Ckd2XEiPTocVWJh1-13" value="" style="endArrow=classic;html=1;rounded=0;exitX=0;exitY=0.25;exitDx=0;exitDy=0;" edge="1" parent="1" source="acW1Ckd2XEiPTocVWJh1-11">
          <mxGeometry width="50" height="50" relative="1" as="geometry">
            <mxPoint x="700" y="160" as="sourcePoint" />
            <mxPoint x="74" y="9" as="targetPoint" />
          </mxGeometry>
        </mxCell>
      </root>
    </mxGraphModel>
  </diagram>
</mxfile>
